<?xml version="1.0" encoding="UTF-8" standalone="no"?><!DOCTYPE svg PUBLIC "-//W3C//DTD SVG 1.1//EN" "http://www.w3.org/Graphics/SVG/1.1/DTD/svg11.dtd"><svg width="100%" height="100%" viewBox="0 0 1667 1667" version="1.1" xmlns="http://www.w3.org/2000/svg" xmlns:xlink="http://www.w3.org/1999/xlink" xml:space="preserve" xmlns:serif="http://www.serif.com/" style="fill-rule:evenodd;clip-rule:evenodd;stroke-linejoin:round;stroke-miterlimit:2;"><rect id="KumbiVote-Transparent-Dark" serif:id="KumbiVote Transparent Dark" x="-0" y="0" width="1666.67" height="1666.67" style="fill:none;"/><g><g><path d="M697.591,799.661l-271.069,203.08l-0,-715.219l271.069,-0.107l0,384.263c47.706,-156.888 190.166,-322.357 342.013,-384.263c-32.79,148.056 -49.342,271.835 -49.329,273.998l389.602,-272.906l-134.516,271.899l134.272,-136.639c-0,0 -73.899,331.877 -313.453,543.911c61.045,155.906 192.178,300.077 313.453,411.395l-134.274,-0c-172.984,-0 -391.447,-107.16 -485.471,-271.823c-19.633,0.382 -62.297,0 -62.297,0l0,-307.589Z" style="fill:#113f38;"/><path d="M426.522,1107.37c-77.295,-0.004 -139.733,-0.007 -139.733,-0.007l139.733,-104.625l-0,104.632Z" style="fill:#113f38;"/><path d="M697.664,1107.32l-0.073,271.749l-271.069,0.179l-0,-271.879c100.897,0.004 271.142,-0.049 271.142,-0.049Z" style="fill:#113f38;"/><circle cx="563.017" cy="1003.76" r="34.114" style="fill:#113f38;"/></g></g></svg>