<?xml version="1.0" encoding="UTF-8" standalone="no"?><!DOCTYPE svg PUBLIC "-//W3C//DTD SVG 1.1//EN" "http://www.w3.org/Graphics/SVG/1.1/DTD/svg11.dtd"><svg width="100%" height="100%" viewBox="0 0 1667 1667" version="1.1" xmlns="http://www.w3.org/2000/svg" xmlns:xlink="http://www.w3.org/1999/xlink" xml:space="preserve" xmlns:serif="http://www.serif.com/" style="fill-rule:evenodd;clip-rule:evenodd;stroke-linejoin:round;stroke-miterlimit:2;"><rect id="KumbiVote-Wordmark-Transparent-Navy-Blue" serif:id="KumbiVote Wordmark Transparent Navy Blue" x="-0" y="0" width="1666.67" height="1666.67" style="fill:none;"/><g><g><path d="M306.803,752.19l-109.822,82.277l-0,-289.767l109.822,-0.043l-0,155.682c19.327,-63.563 77.044,-130.601 138.564,-155.682c-13.284,59.984 -19.99,110.132 -19.985,111.008l157.845,-110.566l-54.498,110.158l54.399,-55.358c-0,0 -29.94,134.458 -126.994,220.362c24.732,63.164 77.86,121.575 126.994,166.674l-54.4,0c-70.084,0 -158.593,-43.415 -196.686,-110.127c-7.954,0.155 -25.239,-0 -25.239,-0l-0,-124.618Z" style="fill:#113f38;"/><path d="M196.981,876.858c-31.316,-0.002 -56.612,-0.003 -56.612,-0.003l56.612,-42.388l-0,42.391Z" style="fill:#113f38;"/><path d="M306.832,876.838l-0.029,110.097l-109.822,0.073l-0,-110.15c40.877,0.001 109.851,-0.02 109.851,-0.02Z" style="fill:#113f38;"/><circle cx="252.281" cy="834.878" r="13.821" style="fill:#113f38;"/></g><g><rect x="1466.29" y="642.356" width="60.012" height="246.992" style="fill:#113f38;fill-rule:nonzero;"/><path d="M1419.23,720.06c0,-42.162 -36.872,-77.704 -78.88,-77.704l-138.38,0l-0,246.952l140.851,0c42.008,0 76.604,-34.368 76.604,-76.53c-0,-18.424 -6.708,-35.076 -17.298,-48.186c9.178,-12.755 17.103,-27.525 17.103,-44.532Zm-155.522,-17.117l76.642,-0c8.825,-0 16.239,7.44 16.239,16.298c-0,9.212 -7.414,16.652 -16.239,16.652l-76.642,0l-0,-32.95Zm79.113,126.133l-79.113,0l-0,-32.951l78.407,0c9.178,0 16.945,7.441 16.945,16.653c-0,8.858 -7.414,16.298 -16.239,16.298Z" style="fill:#113f38;fill-rule:nonzero;"/><path d="M1061.31,889.268l-63.351,-0l-31.95,-87.966l-0.129,87.966l-61.609,-0l-0,-246.952l61.646,-0l63.718,164.353l63.717,-164.353l61.646,-0l0.108,246.952l-61.608,-0l-0.238,-87.966l-31.95,87.966Z" style="fill:#113f38;"/><path d="M794.609,781.511c0,26.513 -22.768,48.142 -51.045,48.142c-27.909,0 -51.045,-21.629 -51.045,-48.142l0,-139.195l-62.429,-0l0,139.195c0,59.306 51.045,107.797 113.474,107.797c62.797,0 113.841,-48.491 113.841,-107.797l0,-139.195l-62.796,-0l0,139.195Z" style="fill:#113f38;fill-rule:nonzero;"/></g><g transform="matrix(179.885,0,0,179.885,1536.17,1121.29)"></g><text x="802.061px" y="1121.29px" style="font-family:'OldGrowth-Regular', 'Old Growth';font-size:179.885px;fill:#113f38;">v<tspan x="978.348px " y="1121.29px ">o</tspan>te</text></g></svg>